<?xml version="1.0" encoding="utf-8"?>
<!-- Generator: Adobe Illustrator 28.3.0, SVG Export Plug-In . SVG Version: 6.00 Build 0)  -->
<svg version="1.1" id="Layer_1" xmlns="http://www.w3.org/2000/svg" xmlns:xlink="http://www.w3.org/1999/xlink" x="0px" y="0px"
	 viewBox="0 0 1080 1080" style="enable-background:new 0 0 1080 1080;" xml:space="preserve">
<style type="text/css">
	.st0{fill:#232323;}
	.st1{fill:none;}
	.st2{fill:#0AE0C6;}
</style>
<rect class="st0" width="1080" height="1080"/>
<path class="st1" d="M548.6,601c-5.7-9.3-7.6-11.5-12.4-11.5c-6.1,0-8.1,2.3-14.2,12.2c-0.7,1.1-1.4,2.2-2.1,3.3
	c-1.7,2.7-0.9,4.2-0.6,4.7c0.8,1.5,3,3.1,6,3.1c6.4,0.1,8.1,0.1,10.9,0c2,0,4.4,0,9.3,0c3,0,4.5-2.1,5.2-3.3c1-1.8,1-3.7,0.5-4.5
	C550.2,603.7,549.4,602.3,548.6,601z"/>
<path class="st2" d="M1007.2,336c-25.6-60.6-62.4-115.1-109.1-161.8C851.4,127.4,796.9,90.7,736.3,65c-62.8-26.6-129.5-40-198.2-40
	c-68.7,0-135.4,13.5-198.2,40C279.2,90.7,224.8,127.4,178,174.1C131.3,220.9,94.6,275.3,68.9,336c-26.6,62.8-40,129.5-40,198.2
	c0,68.7,13.5,135.4,40,198.2C94.6,793,131.3,847.5,178,894.2c46.8,46.8,101.2,83.5,161.8,109.1c62.8,26.6,129.5,40,198.2,40
	c68.7,0,135.4-13.5,198.2-40c60.6-25.6,115.1-62.4,161.8-109.1c46.8-46.8,83.5-101.2,109.1-161.8c26.6-62.8,40-129.5,40-198.2
	C1047.2,465.4,1033.8,398.8,1007.2,336z M962.5,713.5c-23.2,54.9-56.4,104.1-98.7,146.4c-42.3,42.3-91.6,75.5-146.4,98.7
	c-56.8,24-117.1,36.2-179.3,36.2c-62.2,0-122.5-12.2-179.3-36.2c-54.9-23.2-104.1-56.4-146.4-98.7c-42.3-42.3-75.5-91.6-98.7-146.4
	c-24-56.8-36.2-117.1-36.2-179.3s12.2-122.5,36.2-179.3c23.2-54.9,56.4-104.1,98.7-146.4c42.3-42.3,91.6-75.5,146.4-98.7
	c56.8-24,117.1-36.2,179.3-36.2c62.2,0,122.5,12.2,179.3,36.2c54.9,23.2,104.1,56.4,146.4,98.7c42.3,42.3,75.5,91.6,98.7,146.4
	c24,56.8,36.2,117.1,36.2,179.3S986.6,656.7,962.5,713.5z"/>
<path class="st2" d="M290.8,862.6c7.8,5.9,15.9,11.5,24.1,16.9c9.3,6,21.6,3.3,27.6-5.9l126.6-194.4c1.9-3,5.2-4.7,8.7-4.7h113.5
	c3.6,0,6.8,1.8,8.8,4.8l127.1,198.2c5.9,9.2,18,12,27.3,6.3c8.6-5.3,16.9-10.9,25.1-16.9c8.5-6.2,10.7-18,5-26.9l-94.9-149.5
	c-2.1-3.3-2.2-7.4-0.2-10.9c1.9-3.2,5.5-5.1,9.3-5.1h135.6c15.7,0,28.4-12.7,28.4-28.4v-4.8c0-15.7-12.7-28.4-28.4-28.4H646.2
	c-3.6,0-6.9-1.8-8.8-4.8l-30.7-48.4c-2.1-3.3-2.2-7.4-0.2-10.9c1.9-3.2,5.5-5.1,9.3-5.1h143.1c4.9,0,9,3.9,9,8.8
	c0,10.5,5.4,19.9,14.5,25.2c9.1,5.2,19.9,5.2,29,0l69-39.8c9.1-5.2,14.5-14.6,14.5-25.1c0-10.5-5.4-19.9-14.5-25.1l-69-39.8
	c-9.1-5.2-19.9-5.2-29,0c-9.1,5.3-14.6,14.7-14.5,25.3c0,5.1-4.2,9.1-9.2,9.1l-141.6,0c-3.8,0-7.4-1.9-9.3-5.2
	c-2-3.5-1.9-7.6,0.3-10.9l160.8-248.4c6-9.2,3.4-21.6-5.8-27.6c-7.6-5-15.4-9.7-23.4-14.2c-9.2-5.2-20.8-2.3-26.6,6.5l-168,257.8
	c-2,3-5.1,4.7-8.7,4.7c0,0,0,0-0.1,0c-3.6,0-6.8-1.8-8.7-4.8L363.2,182.5c-5.7-8.9-17.4-11.9-26.6-6.7c-9,5.1-17.8,10.5-26.4,16.2
	c-9,6-11.5,18.2-5.7,27.3L462,465.8c2,3.2,2.4,7.2,0.7,10.6c-1.8,3.6-5.3,5.7-9.3,5.7H243.7c-15.7,0-28.4,12.7-28.4,28.4v4.8
	c0,15.7,12.7,28.4,28.4,28.4h211.2c3.8,0,7.4,1.9,9.3,5.2c2,3.5,1.9,7.6-0.2,10.9l-31.2,48.4c-1.9,3-5.2,4.8-8.8,4.8H319.4
	c-4.8,0-8.6-4-8.6-8.8c0-10.5-5.5-20-14.6-25.2c-9.1-5.3-20.1-5.3-29.2,0l-68.5,39.5c-9.1,5.3-14.6,14.7-14.6,25.3
	c0,10.6,5.5,20,14.6,25.3l68.5,39.5c9.1,5.3,20.1,5.3,29.2,0c9.1-5.3,14.6-14.7,14.6-25.2c0-4.8,3.8-8.8,8.6-8.8h51.2
	c3.8,0,7.4,1.9,9.3,5.2c2,3.5,1.9,7.6-0.2,10.9L286,835.8C280.3,844.6,282.4,856.3,290.8,862.6z M550.6,609.6
	c-0.7,1.2-2.2,3.3-5.2,3.3c-4.8,0-7.3,0-9.3,0c-2.8,0-4.5,0-10.9,0c-3,0-5.1-1.6-6-3.1c-0.3-0.5-1.1-2,0.6-4.7
	c0.7-1.1,1.4-2.2,2.1-3.3c6.1-9.9,8.1-12.2,14.2-12.2c4.9,0,6.7,2.2,12.4,11.5c0.8,1.3,1.7,2.7,2.6,4.2
	C551.7,605.9,551.6,607.8,550.6,609.6z"/>
</svg>
